<svg width="24" height="24" viewBox="0 0 24 24" fill="none" xmlns="http://www.w3.org/2000/svg">
    <path d="M12 19.5C12.5523 19.5 13 19.0523 13 18.5C13 17.9477 12.5523 17.5 12 17.5C11.4477 17.5 11 17.9477 11 18.5C11 19.0523 11.4477 19.5 12 19.5Z" fill="white" stroke="white" stroke-width="1.5" stroke-linecap="round" stroke-linejoin="round"/>
    <path d="M8.2 15.2C9.2137 14.4115 10.5363 13.9694 11.9 13.9694C13.2637 13.9694 14.5863 14.4115 15.6 15.2" stroke="white" stroke-width="1.5" stroke-linecap="round" stroke-linejoin="round"/>
    <path d="M5 12C6.86084 10.5384 9.16529 9.75325 11.55 9.75325C13.9347 9.75325 16.2392 10.5384 18.1 12" stroke="white" stroke-width="1.5" stroke-linecap="round" stroke-linejoin="round"/>
    <path d="M1.9 8.7C4.6 6.45 8.2 5.25 12 5.25C15.8 5.25 19.4 6.45 22.1 8.7" stroke="white" stroke-width="1.5" stroke-linecap="round" stroke-linejoin="round"/>
</svg> 